<mxfile host="Electron" modified="2023-11-28T19:13:14.706Z" agent="Mozilla/5.0 (Windows NT 10.0; Win64; x64) AppleWebKit/537.36 (KHTML, like Gecko) draw.io/21.7.5 Chrome/114.0.5735.289 Electron/25.8.1 Safari/537.36" etag="rh2wKFLD5_gebnlCxgxB" version="21.7.5" type="device">
  <diagram name="Страница — 1" id="xjbYhO8doR0Xn5XljVLI">
    <mxGraphModel dx="3769" dy="830" grid="1" gridSize="10" guides="1" tooltips="1" connect="1" arrows="1" fold="1" page="1" pageScale="1" pageWidth="2339" pageHeight="3300" math="0" shadow="0">
      <root>
        <mxCell id="0" />
        <mxCell id="1" parent="0" />
        <mxCell id="cB_1jcFKDLnhwmuv0rob-1" value="«interface»&lt;br&gt;&lt;b&gt;AbstractReleaseSystem&lt;/b&gt;" style="html=1;whiteSpace=wrap;" vertex="1" parent="1">
          <mxGeometry x="680" y="560" width="160" height="40" as="geometry" />
        </mxCell>
        <mxCell id="cB_1jcFKDLnhwmuv0rob-2" value="«interface»&lt;br&gt;&lt;b&gt;AbstarctInfoSystem&lt;/b&gt;" style="html=1;whiteSpace=wrap;" vertex="1" parent="1">
          <mxGeometry x="680" y="720" width="160" height="40" as="geometry" />
        </mxCell>
        <mxCell id="cB_1jcFKDLnhwmuv0rob-4" value="PostgreSql" style="shape=module;align=left;spacingLeft=20;align=center;verticalAlign=top;whiteSpace=wrap;html=1;" vertex="1" parent="1">
          <mxGeometry x="1080" y="635" width="100" height="50" as="geometry" />
        </mxCell>
        <mxCell id="cB_1jcFKDLnhwmuv0rob-5" value="«interface»&lt;br&gt;&lt;b&gt;AbstarctAuthorizationSystem&lt;/b&gt;" style="html=1;whiteSpace=wrap;" vertex="1" parent="1">
          <mxGeometry x="660" y="480" width="200" height="40" as="geometry" />
        </mxCell>
        <mxCell id="cB_1jcFKDLnhwmuv0rob-6" value="«interface»&lt;br&gt;&lt;b&gt;AbstarctStickerPrinter&lt;/b&gt;" style="html=1;whiteSpace=wrap;" vertex="1" parent="1">
          <mxGeometry x="480" y="800" width="200" height="40" as="geometry" />
        </mxCell>
        <mxCell id="cB_1jcFKDLnhwmuv0rob-7" value="«interface»&lt;br&gt;&lt;b&gt;AbstractProductionDispatcher&lt;/b&gt;" style="html=1;whiteSpace=wrap;" vertex="1" parent="1">
          <mxGeometry x="480" y="640" width="200" height="40" as="geometry" />
        </mxCell>
        <mxCell id="cB_1jcFKDLnhwmuv0rob-8" value="«interface»&lt;br&gt;&lt;b&gt;AbstractClient&lt;/b&gt;" style="html=1;whiteSpace=wrap;" vertex="1" parent="1">
          <mxGeometry x="-80" y="560" width="160" height="40" as="geometry" />
        </mxCell>
        <mxCell id="cB_1jcFKDLnhwmuv0rob-9" value="«interface»&lt;br&gt;&lt;b&gt;AbstractCommand&lt;/b&gt;" style="html=1;whiteSpace=wrap;" vertex="1" parent="1">
          <mxGeometry x="200" y="640" width="160" height="40" as="geometry" />
        </mxCell>
        <mxCell id="cB_1jcFKDLnhwmuv0rob-30" style="edgeStyle=orthogonalEdgeStyle;rounded=0;orthogonalLoop=1;jettySize=auto;html=1;" edge="1" parent="1" source="cB_1jcFKDLnhwmuv0rob-22" target="cB_1jcFKDLnhwmuv0rob-4">
          <mxGeometry relative="1" as="geometry" />
        </mxCell>
        <mxCell id="cB_1jcFKDLnhwmuv0rob-22" value="«interface»&lt;br&gt;&lt;b&gt;AbstractSqlDatabase&lt;/b&gt;" style="html=1;whiteSpace=wrap;" vertex="1" parent="1">
          <mxGeometry x="840" y="640" width="160" height="40" as="geometry" />
        </mxCell>
        <mxCell id="cB_1jcFKDLnhwmuv0rob-23" value="1" style="endArrow=open;html=1;endSize=12;startArrow=diamondThin;startSize=14;startFill=1;edgeStyle=orthogonalEdgeStyle;align=left;verticalAlign=bottom;rounded=0;exitX=0.75;exitY=1;exitDx=0;exitDy=0;entryX=0;entryY=0.5;entryDx=0;entryDy=0;" edge="1" parent="1" source="cB_1jcFKDLnhwmuv0rob-7" target="cB_1jcFKDLnhwmuv0rob-2">
          <mxGeometry x="-0.4545" relative="1" as="geometry">
            <mxPoint x="840" y="710" as="sourcePoint" />
            <mxPoint x="1000" y="710" as="targetPoint" />
            <mxPoint as="offset" />
          </mxGeometry>
        </mxCell>
        <mxCell id="cB_1jcFKDLnhwmuv0rob-24" value="1" style="endArrow=open;html=1;endSize=12;startArrow=diamondThin;startSize=14;startFill=1;edgeStyle=orthogonalEdgeStyle;align=left;verticalAlign=bottom;rounded=0;exitX=1;exitY=0.5;exitDx=0;exitDy=0;entryX=0;entryY=0.5;entryDx=0;entryDy=0;" edge="1" parent="1" source="cB_1jcFKDLnhwmuv0rob-7" target="cB_1jcFKDLnhwmuv0rob-22">
          <mxGeometry x="-0.8065" relative="1" as="geometry">
            <mxPoint x="710" y="700" as="sourcePoint" />
            <mxPoint x="840" y="660" as="targetPoint" />
            <mxPoint as="offset" />
          </mxGeometry>
        </mxCell>
        <mxCell id="cB_1jcFKDLnhwmuv0rob-25" value="1" style="endArrow=open;html=1;endSize=12;startArrow=diamondThin;startSize=14;startFill=1;edgeStyle=orthogonalEdgeStyle;align=left;verticalAlign=bottom;rounded=0;exitX=0.75;exitY=0;exitDx=0;exitDy=0;entryX=0;entryY=0.5;entryDx=0;entryDy=0;" edge="1" parent="1" source="cB_1jcFKDLnhwmuv0rob-7" target="cB_1jcFKDLnhwmuv0rob-1">
          <mxGeometry x="-0.6364" relative="1" as="geometry">
            <mxPoint x="670" y="580" as="sourcePoint" />
            <mxPoint x="830" y="580" as="targetPoint" />
            <mxPoint as="offset" />
          </mxGeometry>
        </mxCell>
        <mxCell id="cB_1jcFKDLnhwmuv0rob-26" value="1" style="endArrow=open;html=1;endSize=12;startArrow=diamondThin;startSize=14;startFill=0;edgeStyle=orthogonalEdgeStyle;align=left;verticalAlign=bottom;rounded=0;exitX=1;exitY=0.5;exitDx=0;exitDy=0;entryX=0.25;entryY=0;entryDx=0;entryDy=0;" edge="1" parent="1" source="cB_1jcFKDLnhwmuv0rob-1" target="cB_1jcFKDLnhwmuv0rob-22">
          <mxGeometry x="-0.7647" relative="1" as="geometry">
            <mxPoint x="890" y="670" as="sourcePoint" />
            <mxPoint x="1050" y="670" as="targetPoint" />
            <mxPoint as="offset" />
          </mxGeometry>
        </mxCell>
        <mxCell id="cB_1jcFKDLnhwmuv0rob-27" value="1" style="endArrow=open;html=1;endSize=12;startArrow=diamondThin;startSize=14;startFill=0;edgeStyle=orthogonalEdgeStyle;align=left;verticalAlign=bottom;rounded=0;exitX=1;exitY=0.5;exitDx=0;exitDy=0;entryX=0.5;entryY=1;entryDx=0;entryDy=0;" edge="1" parent="1" source="cB_1jcFKDLnhwmuv0rob-2" target="cB_1jcFKDLnhwmuv0rob-22">
          <mxGeometry x="-0.8095" relative="1" as="geometry">
            <mxPoint x="980" y="650" as="sourcePoint" />
            <mxPoint x="980" y="730" as="targetPoint" />
            <Array as="points">
              <mxPoint x="920" y="740" />
            </Array>
            <mxPoint as="offset" />
          </mxGeometry>
        </mxCell>
        <mxCell id="cB_1jcFKDLnhwmuv0rob-28" value="1" style="endArrow=open;html=1;endSize=12;startArrow=diamondThin;startSize=14;startFill=1;edgeStyle=orthogonalEdgeStyle;align=left;verticalAlign=bottom;rounded=0;exitX=0.5;exitY=1;exitDx=0;exitDy=0;" edge="1" parent="1" source="cB_1jcFKDLnhwmuv0rob-7" target="cB_1jcFKDLnhwmuv0rob-6">
          <mxGeometry x="-0.5" relative="1" as="geometry">
            <mxPoint x="269.48" y="730" as="sourcePoint" />
            <mxPoint x="479.48" y="830" as="targetPoint" />
            <mxPoint as="offset" />
          </mxGeometry>
        </mxCell>
        <mxCell id="cB_1jcFKDLnhwmuv0rob-29" value="1" style="endArrow=open;html=1;endSize=12;startArrow=diamondThin;startSize=14;startFill=1;edgeStyle=orthogonalEdgeStyle;align=left;verticalAlign=bottom;rounded=0;exitX=0.5;exitY=0;exitDx=0;exitDy=0;entryX=0;entryY=0.5;entryDx=0;entryDy=0;" edge="1" parent="1" source="cB_1jcFKDLnhwmuv0rob-7" target="cB_1jcFKDLnhwmuv0rob-5">
          <mxGeometry x="-0.8182" relative="1" as="geometry">
            <mxPoint x="230" y="540" as="sourcePoint" />
            <mxPoint x="440" y="440" as="targetPoint" />
            <mxPoint as="offset" />
            <Array as="points">
              <mxPoint x="580" y="500" />
            </Array>
          </mxGeometry>
        </mxCell>
        <mxCell id="cB_1jcFKDLnhwmuv0rob-32" value="1" style="endArrow=open;html=1;endSize=12;startArrow=diamondThin;startSize=14;startFill=0;edgeStyle=orthogonalEdgeStyle;align=left;verticalAlign=bottom;rounded=0;entryX=0.75;entryY=0;entryDx=0;entryDy=0;jumpStyle=arc;" edge="1" parent="1" source="cB_1jcFKDLnhwmuv0rob-5" target="cB_1jcFKDLnhwmuv0rob-22">
          <mxGeometry x="-0.9487" relative="1" as="geometry">
            <mxPoint x="810" y="430" as="sourcePoint" />
            <mxPoint x="1090" y="510" as="targetPoint" />
            <mxPoint as="offset" />
            <Array as="points">
              <mxPoint x="960" y="500" />
            </Array>
          </mxGeometry>
        </mxCell>
        <mxCell id="cB_1jcFKDLnhwmuv0rob-35" value="Use" style="endArrow=open;endSize=12;dashed=1;html=1;rounded=0;exitX=1;exitY=0.5;exitDx=0;exitDy=0;entryX=0;entryY=0.5;entryDx=0;entryDy=0;" edge="1" parent="1" source="cB_1jcFKDLnhwmuv0rob-9" target="cB_1jcFKDLnhwmuv0rob-7">
          <mxGeometry width="160" relative="1" as="geometry">
            <mxPoint x="320" y="760" as="sourcePoint" />
            <mxPoint x="480" y="760" as="targetPoint" />
          </mxGeometry>
        </mxCell>
        <mxCell id="cB_1jcFKDLnhwmuv0rob-37" value="«interface»&lt;br&gt;&lt;b&gt;AbstractPersoServer&lt;/b&gt;" style="html=1;whiteSpace=wrap;" vertex="1" parent="1">
          <mxGeometry x="450" y="320" width="160" height="40" as="geometry" />
        </mxCell>
        <mxCell id="cB_1jcFKDLnhwmuv0rob-38" value="n" style="endArrow=open;html=1;endSize=12;startArrow=diamondThin;startSize=14;startFill=1;edgeStyle=orthogonalEdgeStyle;align=left;verticalAlign=bottom;rounded=0;exitX=1;exitY=0.5;exitDx=0;exitDy=0;entryX=0.5;entryY=0;entryDx=0;entryDy=0;" edge="1" parent="1" source="cB_1jcFKDLnhwmuv0rob-8" target="cB_1jcFKDLnhwmuv0rob-9">
          <mxGeometry x="-0.8462" relative="1" as="geometry">
            <mxPoint x="130" y="550" as="sourcePoint" />
            <mxPoint x="370" y="370" as="targetPoint" />
            <mxPoint as="offset" />
            <Array as="points">
              <mxPoint x="280" y="580" />
            </Array>
          </mxGeometry>
        </mxCell>
        <mxCell id="cB_1jcFKDLnhwmuv0rob-39" value="n" style="endArrow=open;html=1;endSize=12;startArrow=diamondThin;startSize=14;startFill=1;edgeStyle=orthogonalEdgeStyle;align=left;verticalAlign=bottom;rounded=0;exitX=0;exitY=0.5;exitDx=0;exitDy=0;entryX=0.5;entryY=0;entryDx=0;entryDy=0;" edge="1" parent="1" source="cB_1jcFKDLnhwmuv0rob-37" target="cB_1jcFKDLnhwmuv0rob-8">
          <mxGeometry x="-0.9403" relative="1" as="geometry">
            <mxPoint x="430" y="430" as="sourcePoint" />
            <mxPoint x="430" y="590" as="targetPoint" />
            <mxPoint as="offset" />
            <Array as="points">
              <mxPoint y="340" />
            </Array>
          </mxGeometry>
        </mxCell>
        <mxCell id="cB_1jcFKDLnhwmuv0rob-40" value="1" style="endArrow=open;html=1;endSize=12;startArrow=diamondThin;startSize=14;startFill=1;edgeStyle=orthogonalEdgeStyle;align=left;verticalAlign=bottom;rounded=0;exitX=0.5;exitY=1;exitDx=0;exitDy=0;entryX=0.25;entryY=0;entryDx=0;entryDy=0;" edge="1" parent="1" source="cB_1jcFKDLnhwmuv0rob-37" target="cB_1jcFKDLnhwmuv0rob-7">
          <mxGeometry x="-0.7857" relative="1" as="geometry">
            <mxPoint x="560" y="420" as="sourcePoint" />
            <mxPoint x="800" y="240" as="targetPoint" />
            <mxPoint as="offset" />
            <Array as="points">
              <mxPoint x="530" y="360" />
            </Array>
          </mxGeometry>
        </mxCell>
        <mxCell id="cB_1jcFKDLnhwmuv0rob-42" value="thread1" style="shape=umlFrame;whiteSpace=wrap;html=1;pointerEvents=0;fillColor=#dae8fc;strokeColor=#6c8ebf;" vertex="1" parent="1">
          <mxGeometry x="400" y="120" width="240" height="280" as="geometry" />
        </mxCell>
        <mxCell id="cB_1jcFKDLnhwmuv0rob-43" value="thread2" style="shape=umlFrame;whiteSpace=wrap;html=1;pointerEvents=0;fillColor=#d5e8d4;strokeColor=#82b366;" vertex="1" parent="1">
          <mxGeometry x="-120" y="520" width="520" height="250" as="geometry" />
        </mxCell>
        <mxCell id="cB_1jcFKDLnhwmuv0rob-44" value="thread3" style="shape=umlFrame;whiteSpace=wrap;html=1;pointerEvents=0;fillColor=#f8cecc;strokeColor=#b85450;" vertex="1" parent="1">
          <mxGeometry x="440" y="440" width="600" height="440" as="geometry" />
        </mxCell>
        <mxCell id="cB_1jcFKDLnhwmuv0rob-45" value="«interface»&lt;br&gt;&lt;b&gt;AbstractFirmwareGenerator&lt;/b&gt;" style="html=1;whiteSpace=wrap;" vertex="1" parent="1">
          <mxGeometry x="-80" y="720" width="160" height="40" as="geometry" />
        </mxCell>
        <mxCell id="cB_1jcFKDLnhwmuv0rob-47" value="1" style="endArrow=open;html=1;endSize=12;startArrow=diamondThin;startSize=14;startFill=1;edgeStyle=orthogonalEdgeStyle;align=left;verticalAlign=bottom;rounded=0;" edge="1" parent="1" source="cB_1jcFKDLnhwmuv0rob-8" target="cB_1jcFKDLnhwmuv0rob-45">
          <mxGeometry x="-0.5" relative="1" as="geometry">
            <mxPoint x="-350" y="610" as="sourcePoint" />
            <mxPoint x="-350" y="890" as="targetPoint" />
            <mxPoint as="offset" />
            <Array as="points" />
          </mxGeometry>
        </mxCell>
        <mxCell id="cB_1jcFKDLnhwmuv0rob-50" value="«interface»&lt;br&gt;&lt;b&gt;ITransponderRelease&lt;/b&gt;" style="html=1;whiteSpace=wrap;" vertex="1" parent="1">
          <mxGeometry x="200" y="720" width="160" height="40" as="geometry" />
        </mxCell>
        <mxCell id="cB_1jcFKDLnhwmuv0rob-51" value="" style="endArrow=open;endFill=1;endSize=12;html=1;rounded=0;exitX=0.5;exitY=0;exitDx=0;exitDy=0;entryX=0.5;entryY=1;entryDx=0;entryDy=0;" edge="1" parent="1" source="cB_1jcFKDLnhwmuv0rob-50" target="cB_1jcFKDLnhwmuv0rob-9">
          <mxGeometry width="160" relative="1" as="geometry">
            <mxPoint x="10" y="880" as="sourcePoint" />
            <mxPoint x="170" y="880" as="targetPoint" />
          </mxGeometry>
        </mxCell>
        <mxCell id="cB_1jcFKDLnhwmuv0rob-52" value="1" style="endArrow=open;html=1;endSize=12;startArrow=diamondThin;startSize=14;startFill=0;edgeStyle=orthogonalEdgeStyle;align=left;verticalAlign=bottom;rounded=0;exitX=0;exitY=0.5;exitDx=0;exitDy=0;entryX=1;entryY=0.5;entryDx=0;entryDy=0;" edge="1" parent="1" source="cB_1jcFKDLnhwmuv0rob-50" target="cB_1jcFKDLnhwmuv0rob-45">
          <mxGeometry x="-0.6667" relative="1" as="geometry">
            <mxPoint x="220" y="800" as="sourcePoint" />
            <mxPoint x="170" y="890" as="targetPoint" />
            <mxPoint as="offset" />
          </mxGeometry>
        </mxCell>
        <mxCell id="cB_1jcFKDLnhwmuv0rob-53" value="«singleton»&lt;br&gt;&lt;b&gt;GlobalContext&lt;/b&gt;" style="html=1;whiteSpace=wrap;" vertex="1" parent="1">
          <mxGeometry x="450" y="240" width="160" height="40" as="geometry" />
        </mxCell>
        <mxCell id="cB_1jcFKDLnhwmuv0rob-54" value="«singleton»&lt;br&gt;&lt;b&gt;LogSystem&lt;/b&gt;" style="html=1;whiteSpace=wrap;" vertex="1" parent="1">
          <mxGeometry x="450" y="160" width="160" height="40" as="geometry" />
        </mxCell>
      </root>
    </mxGraphModel>
  </diagram>
</mxfile>
